<?xml version="1.0" encoding="UTF-8"?>
<svg version="1.1" xmlns="http://www.w3.org/2000/svg" width="289" height="290">
<path d="M0 0 C95.37 0 190.74 0 289 0 C289 95.7 289 191.4 289 290 C193.63 290 98.26 290 0 290 C0 194.3 0 98.6 0 0 Z " fill="#83BEFE" transform="translate(0,0)"/>
<path d="M0 0 C95.37 0 190.74 0 289 0 C289.144375 26.255625 289.28875 52.51125 289.4375 79.5625 C289.50122803 87.85189697 289.56495605 96.14129395 289.63061523 104.68188477 C289.66223145 114.80651855 289.66223145 114.80651855 289.66810608 119.54673767 C289.67462654 122.85676432 289.70085062 126.16600468 289.73902893 129.47581482 C289.78711339 133.70051226 289.8014266 137.92406961 289.79150593 142.14901531 C289.79357968 143.69775555 289.80742282 145.2465364 289.83450592 146.7950412 C290.02736143 158.3609515 290.02736143 158.3609515 287.47828865 162.42773247 C285.74161339 164.1920877 284.0333754 165.59766935 282 167 C281.154375 167.75152344 280.30875 168.50304687 279.4375 169.27734375 C276.72057108 171.19748102 274.10015588 172.36435302 271 173.5625 C267.92629651 174.75826475 265.30396466 175.78052552 262.625 177.71484375 C258.91151232 179.53290543 255.90979615 178.68168644 252 178 C250.28275379 177.80767642 248.56382948 177.62991795 246.84375 177.46484375 C245.52890625 177.33432617 245.52890625 177.33432617 244.1875 177.20117188 C242.8571875 177.0706543 242.8571875 177.0706543 241.5 176.9375 C240.5821875 176.84662109 239.664375 176.75574219 238.71875 176.66210938 C236.47925522 176.4404927 234.2396729 176.2198079 232 176 C232.02094727 175.41210693 232.04189453 174.82421387 232.06347656 174.21850586 C232.44978655 161.68176882 232.12196299 150.94345177 228 139 C227.55759369 137.58795881 227.11758486 136.17516474 226.6796875 134.76171875 C219.90467209 113.56468762 206.48240528 96.91011621 187.28515625 85.54296875 C185 84 185 84 183 81 C182.61363136 77.9863246 182.66779207 76.52204104 184.3125 73.9375 C185.4375 72.64583333 186.5625 71.35416667 187.6875 70.0625 C189.30615163 67.51890458 189.32022774 65.96210658 189 63 C186.06076648 60.06076648 176.99481296 61.62580452 173.04638672 61.61938477 C158.2693001 61.82685198 146.97389707 66.27414688 133.88452148 72.7668457 C129.18761564 75.07259948 124.75410609 76.81584339 119.6875 78.125 C98.50194944 83.62485771 81.11201482 98.25060493 69.91015625 116.7265625 C66.64440314 122.32308828 63.87160471 127.76131762 62 134 C61.00033203 133.80470703 61.00033203 133.80470703 59.98046875 133.60546875 C52.00443024 132.4118518 46.96936934 134.10416298 40 138 C32.35671852 129.31161677 25.40003012 120.24353377 18.5859375 110.89453125 C15.03549204 106.02798916 11.40925442 101.22259977 7.75 96.4375 C6.92653076 95.35710449 6.92653076 95.35710449 6.08642578 94.25488281 C5.57837402 93.59198242 5.07032227 92.92908203 4.546875 92.24609375 C4.10182617 91.66529053 3.65677734 91.0844873 3.19824219 90.48608398 C1.92908271 88.85800315 1.92908271 88.85800315 0 87 C0 58.29 0 29.58 0 0 Z " fill="#C9E6FD" transform="translate(0,0)"/>
<path d="M0 0 C2 2 2 2 2.31640625 4.3828125 C1.85166845 8.22694 -0.23114261 9.97389154 -2.78515625 12.7421875 C-4.63889602 16.1874016 -4.08242639 18.31479261 -3 22 C-0.64912846 24.24605954 -0.64912846 24.24605954 2.4375 25.875 C8.63274115 29.69197322 13.81789649 33.90326887 19 39 C19.77214844 39.75925781 20.54429687 40.51851562 21.33984375 41.30078125 C39.88144022 60.66644868 43.68567245 83.89258975 43.13183594 109.68359375 C42.48519869 125.95011304 36.34584558 140.51994265 26 153 C25.45730469 153.66773438 24.91460937 154.33546875 24.35546875 155.0234375 C18.51491743 161.53188641 10.11835285 165.08606701 2 168 C-1.3125 168.125 -1.3125 168.125 -4 168 C-4 167.34 -4 166.68 -4 166 C-2.514657 164.94800656 -0.98446823 163.9590742 0.5625 163 C7.52485013 158.27942785 12.2676807 151.97785684 15 144 C15.4192687 138.14399099 15.4192687 138.14399099 13 133 C9.71028552 130.89906871 7.10505809 130.7832129 3.25 130.875 C2.26515625 130.89304688 1.2803125 130.91109375 0.265625 130.9296875 C-0.48203125 130.95289063 -1.2296875 130.97609375 -2 131 C-2.14453125 128.66015625 -2.14453125 128.66015625 -2 126 C1.50048491 122.12108429 4.69412504 120.64362499 9.625 119 C12.94235571 117.85655178 14.97504289 117.01985225 17.75 114.8125 C19.58541923 110.68280673 19.10990991 107.31457936 18 103 C16.25631835 99.25329814 16.25631835 99.25329814 13 97 C6.11748858 96.05854521 1.99878488 97.51403306 -3.4375 101.625 C-4.72701558 102.55896678 -6.0186901 103.48995996 -7.3125 104.41796875 C-7.93511719 104.86833496 -8.55773437 105.31870117 -9.19921875 105.78271484 C-11.65037682 107.43963921 -14.27548876 108.65565084 -16.9375 109.9375 C-19.79026887 111.61504183 -20.79512396 112.28180817 -21.7109375 115.4921875 C-21.97973773 122.95656325 -19.76690819 129.66250675 -16.3125 136.1875 C-14.83359705 139.35657776 -14.75316876 141.54436258 -15 145 C-19.06269615 147.03134808 -24.14541602 145.6014867 -28.3125 144.25 C-35.77350611 141.14124745 -41.56200205 137.044629 -46.3125 130.5 C-47.90440736 128.38431133 -47.90440736 128.38431133 -50 127 C-54.98143461 126.82484407 -59.33113251 128.44371084 -64 130 C-78.75815046 130.94486569 -94.06441256 131.48749113 -108 126 C-108.85980469 125.67644531 -109.71960938 125.35289062 -110.60546875 125.01953125 C-118.56231497 121.75415885 -126.19608652 117.77990828 -130.08203125 109.76953125 C-135.2117084 94.29318616 -128.18012632 73.91947083 -121.625 60.1015625 C-111.04537885 39.57479754 -92.90612443 24.04421403 -71 17 C-70.04996094 16.70222656 -69.09992188 16.40445313 -68.12109375 16.09765625 C-62.06940712 14.17923042 -56.49925771 11.85117374 -50.8125 9.0625 C-34.44776393 1.23786088 -18.34939609 -2.49631351 0 0 Z " fill="#030404" transform="translate(188,61)"/>
<path d="M0 0 C5.62056217 4.49644974 5.62056217 4.49644974 7.98828125 7.80859375 C8.52203369 8.5456958 9.05578613 9.28279785 9.60571289 10.04223633 C10.16895264 10.83267334 10.73219238 11.62311035 11.3125 12.4375 C12.54530788 14.13915727 13.77974846 15.83963262 15.015625 17.5390625 C15.66080078 18.42754883 16.30597656 19.31603516 16.97070312 20.23144531 C20.44334668 24.96914718 24.00033997 29.64192927 27.5625 34.3125 C28.22870361 35.18898193 28.89490723 36.06546387 29.58129883 36.96850586 C32.96100392 41.39795808 36.39166335 45.75449066 40 50 C40.68964844 49.62746094 41.37929688 49.25492188 42.08984375 48.87109375 C48.71676454 45.53490729 52.71611153 44.4476959 60 46 C61.50468147 49.93608729 60.45114615 53.35985125 59.5625 57.3125 C57.19913258 68.96634625 55.86348857 81.24814054 62 92 C69.62091543 101.87450441 80.18978036 106.9350182 91.68359375 110.93359375 C95.09012474 112.50186181 95.71975572 114.56355483 97 118 C97.1875 120.875 97.1875 120.875 97 123 C95.99839844 123.51949219 94.99679688 124.03898437 93.96484375 124.57421875 C89.5887459 127.07751838 86.16307946 130.31661029 82.5625 133.8125 C81.31504793 135.00781196 80.06634595 136.20182084 78.81640625 137.39453125 C78.18613525 137.99724854 77.55586426 138.59996582 76.90649414 139.22094727 C75.07065942 140.93406387 73.19009464 142.57215484 71.28125 144.203125 C66.12855801 148.67412816 61.33850576 153.51179724 56.52709961 158.3425293 C54.94040054 159.93458966 53.34842258 161.5212299 51.75585938 163.10742188 C46.93935815 167.92110248 42.24819027 172.78135822 37.8215332 177.96020508 C33.34580818 182.97222526 28.44607697 187.60051128 23.66308594 192.31640625 C22.25517685 193.70632591 20.85019602 195.09920977 19.4453125 196.4921875 C18.61531738 197.31058105 17.78532227 198.12897461 16.93017578 198.97216797 C14.9517258 200.85260529 14.9517258 200.85260529 14 203 C9.38 203 4.76 203 0 203 C0 136.01 0 69.02 0 0 Z " fill="#48AAFF" transform="translate(0,87)"/>
<path d="M0 0 C1.74583549 0.82141018 3.49619159 1.63325357 5.25 2.4375 C6.21421875 2.8809375 7.1784375 3.324375 8.171875 3.78125 C10.59956216 4.82743563 12.98060665 5.65368874 15.5 6.4375 C19 8 19 8 21 10.875 C21.94300676 13.82189614 22.27016342 15.93814796 22 19 C20.49759766 19.77923828 20.49759766 19.77923828 18.96484375 20.57421875 C14.5887459 23.07751838 11.16307946 26.31661029 7.5625 29.8125 C6.31504793 31.00781196 5.06634595 32.20182084 3.81640625 33.39453125 C3.18613525 33.99724854 2.55586426 34.59996582 1.90649414 35.22094727 C0.07065942 36.93406387 -1.80990536 38.57215484 -3.71875 40.203125 C-8.87144199 44.67412816 -13.66149424 49.51179724 -18.47290039 54.3425293 C-20.05959946 55.93458966 -21.65157742 57.5212299 -23.24414062 59.10742188 C-28.06064185 63.92110248 -32.75180973 68.78135822 -37.1784668 73.96020508 C-41.65419182 78.97222526 -46.55392303 83.60051128 -51.33691406 88.31640625 C-52.74482315 89.70632591 -54.14980398 91.09920977 -55.5546875 92.4921875 C-56.38468262 93.31058105 -57.21467773 94.12897461 -58.06982422 94.97216797 C-60.0482742 96.85260529 -60.0482742 96.85260529 -61 99 C-65.62 99 -70.24 99 -75 99 C-75 85.14 -75 71.28 -75 57 C-73.02 58.65 -71.04 60.3 -69 62 C-64.40792614 55.94564564 -60.199577 49.79629006 -56.25 43.3125 C-51.39590382 35.39410733 -46.01334624 27.96350727 -40.29101562 20.65185547 C-39.22695832 19.29039334 -38.18123617 17.91462189 -37.140625 16.53515625 C-30.41049599 8.12249499 -11.28068455 -7.34988932 0 0 Z " fill="#1A9BFF" transform="translate(75,191)"/>
<path d="M0 0 C0.66 0.66 1.32 1.32 2 2 C1.484375 2.53625 0.96875 3.0725 0.4375 3.625 C-1.32605545 6.00496499 -1.32605545 6.00496499 -0.6875 9.25 C-0.460625 10.1575 -0.23375 11.065 0 12 C-0.99 11.67 -1.98 11.34 -3 11 C-3.38218767 12.65614657 -3.71395102 14.32457024 -4 16 C-3.67 16.33 -3.34 16.66 -3 17 C-1.32577014 16.70700977 0.34178227 16.37309899 2 16 C2.33 16 2.66 16 3 16 C3 15.01 3 14.02 3 13 C3.66 13 4.32 13 5 13 C5.33 12.01 5.66 11.02 6 10 C6.66 10 7.32 10 8 10 C7.625 11.9375 7.625 11.9375 7 14 C6.01 14.495 6.01 14.495 5 15 C5.33 16.32 5.66 17.64 6 19 C6.33 18.01 6.66 17.02 7 16 C7.66 15.67 8.32 15.34 9 15 C9.33 14.34 9.66 13.68 10 13 C11.31328657 11.64691687 12.64499081 10.31129922 14 9 C13.505 8.01 13.505 8.01 13 7 C13.598125 7.185625 14.19625 7.37125 14.8125 7.5625 C17.16408762 8.22093687 17.16408762 8.22093687 20 7 C20 7.99 20 8.98 20 10 C18.1875 11.0625 18.1875 11.0625 16 12 C15.01 11.67 14.02 11.34 13 11 C13 11.99 13 12.98 13 14 C13.66 14.33 14.32 14.66 15 15 C14.67 15.33 14.34 15.66 14 16 C14.99 16 15.98 16 17 16 C17 15.34 17 14.68 17 14 C17.66 14.33 18.32 14.66 19 15 C18.7215625 15.928125 18.7215625 15.928125 18.4375 16.875 C17.76313824 19.04160178 17.76313824 19.04160178 19 21 C19.495 19.515 19.495 19.515 20 18 C21.64551962 17.28272222 23.31422289 16.61674772 25 16 C25.66 15.34 26.32 14.68 27 14 C26.67 15.65 26.34 17.3 26 19 C25.34 19 24.68 19 24 19 C24.495 19.99 24.495 19.99 25 21 C25.99 20.67 26.98 20.34 28 20 C27.4234559 23.40013186 26.39002339 24.92670485 23.875 27.25 C21.38989615 29.56332248 19.14116812 31.97729405 16.9375 34.5546875 C11.82696664 40.44820959 6.21444869 45.84291833 0.66308594 51.31640625 C-0.74482315 52.70632591 -2.14980398 54.09920977 -3.5546875 55.4921875 C-4.38468262 56.31058105 -5.21467773 57.12897461 -6.06982422 57.97216797 C-8.0482742 59.85260529 -8.0482742 59.85260529 -9 62 C-13.62 62 -18.24 62 -23 62 C-23 48.14 -23 34.28 -23 20 C-21.02 21.65 -19.04 23.3 -17 25 C-10.93340324 16.90018416 -5.39539949 8.5552052 0 0 Z " fill="#30A1FF" transform="translate(23,228)"/>
<path d="M0 0 C1.50468147 3.93608729 0.45114615 7.35985125 -0.4375 11.3125 C-2.792802 22.92657537 -4.18448486 35.30528308 2 46 C4.44955987 48.95302672 7.10043422 51.49582955 10 54 C10.66 54.66 11.32 55.32 12 56 C9.09692239 56.99192048 6.21533337 57.94379952 3.24609375 58.71875 C-12.44905821 63.08457808 -21.68639002 74.38635357 -31 87 C-31.60585938 87.80695313 -32.21171875 88.61390625 -32.8359375 89.4453125 C-33.22007813 89.95835937 -33.60421875 90.47140625 -34 91 C-34.66 90.67 -35.32 90.34 -36 90 C-35.505 89.01 -35.505 89.01 -35 88 C-35.66 87.67 -36.32 87.34 -37 87 C-36.34 87 -35.68 87 -35 87 C-35.33 86.34 -35.66 85.68 -36 85 C-36.93972656 85.05220703 -36.93972656 85.05220703 -37.8984375 85.10546875 C-38.71570312 85.13253906 -39.53296875 85.15960938 -40.375 85.1875 C-41.18710937 85.22230469 -41.99921875 85.25710937 -42.8359375 85.29296875 C-43.55007812 85.19628906 -44.26421875 85.09960938 -45 85 C-47 82 -47 82 -48 80 C-43.375 77 -43.375 77 -40 77 C-40 75.68 -40 74.36 -40 73 C-37.75 71.1875 -37.75 71.1875 -35 70 C-32.6875 70.3125 -32.6875 70.3125 -31 71 C-30.67 70.34 -30.34 69.68 -30 69 C-30.66 68.67 -31.32 68.34 -32 68 C-31.690625 66.9275 -31.38125 65.855 -31.0625 64.75 C-30.33187904 62.17133778 -29.62517096 59.60487898 -29 57 C-27.68 57 -26.36 57 -25 57 C-24.67 55.68 -24.34 54.36 -24 53 C-23.236875 52.855625 -22.47375 52.71125 -21.6875 52.5625 C-18.91827092 52.0367406 -18.91827092 52.0367406 -16 51 C-16.33 50.01 -16.66 49.02 -17 48 C-15.02 47.01 -13.04 46.02 -11 45 C-10.95210869 43.83337814 -10.95210869 43.83337814 -11.5625 42.125 C-12 40 -12 40 -11 37 C-10.34 36.34 -9.68 35.68 -9 35 C-7.98758315 33.67607028 -6.98560611 32.34400833 -6 31 C-8.67884659 31 -10.50335747 31.11409459 -13 32 C-13.66 32.99 -14.32 33.98 -15 35 C-16.65 34.34 -18.3 33.68 -20 33 C-20 30.69 -20 28.38 -20 26 C-20.99 26 -21.98 26 -23 26 C-23.66 26.66 -24.32 27.32 -25 28 C-27.625 27.625 -27.625 27.625 -30 27 C-29.34 25.35 -28.68 23.7 -28 22 C-27.67 22.66 -27.34 23.32 -27 24 C-23.04 23.505 -23.04 23.505 -19 23 C-19 23.66 -19 24.32 -19 25 C-18.34 25 -17.68 25 -17 25 C-17.99 23.68 -18.98 22.36 -20 21 C-19.34 20.34 -18.68 19.68 -18 19 C-18 17.68 -18 16.36 -18 15 C-18 13.68 -18 12.36 -18 11 C-17.34 11 -16.68 11 -16 11 C-14.35920758 9.35920758 -14.39887658 7.22231235 -14 5 C-14.99 5 -15.98 5 -17 5 C-17.33 5.66 -17.66 6.32 -18 7 C-18.33 6.01 -18.66 5.02 -19 4 C-12.15622802 -0.12912339 -7.90109009 -1.65668018 0 0 Z " fill="#4EADFE" transform="translate(60,133)"/>
<path d="M0 0 C3.63656791 2.90925433 5.65509441 4.54375122 8.19921875 8.08984375 C8.76423096 8.86827637 9.32924316 9.64670898 9.91137695 10.44873047 C10.49749756 11.27002441 11.08361816 12.09131836 11.6875 12.9375 C12.92307737 14.64814879 14.16006487 16.35777992 15.3984375 18.06640625 C16.30867676 19.32348389 16.30867676 19.32348389 17.23730469 20.60595703 C18.82202057 22.75827336 20.44196836 24.8700262 22.1015625 26.96484375 C22.79439331 27.83991577 22.79439331 27.83991577 23.5012207 28.73266602 C24.73030293 30.27205089 25.96835458 31.80426227 27.20703125 33.3359375 C29.0368471 36.05474885 29.58530257 37.79406988 30 41 C30.64389782 43.00744615 31.30562253 45.00945124 32 47 C29.63707344 49.52588702 28.33537489 50.88820837 25 52 C23.77030122 55.51190809 23.77030122 55.51190809 23 59 C24.485 58.505 24.485 58.505 26 58 C26.33 57.01 26.66 56.02 27 55 C27.99 55 28.98 55 30 55 C30 55.66 30 56.32 30 57 C29.01 57 28.02 57 27 57 C26.34 58.32 25.68 59.64 25 61 C24.34 61 23.68 61 23 61 C22.01 63.475 22.01 63.475 21 66 C21.66 66.33 22.32 66.66 23 67 C22.01 67.99 22.01 67.99 21 69 C20.67 69 20.34 69 20 69 C19.731875 69.969375 19.46375 70.93875 19.1875 71.9375 C18.795625 72.948125 18.40375 73.95875 18 75 C16.515 75.495 16.515 75.495 15 76 C12.89380531 72.53097345 12.89380531 72.53097345 13.4375 69.8125 C13.623125 69.214375 13.80875 68.61625 14 68 C13.67 67.67 13.34 67.34 13 67 C13 66.34 13 65.68 13 65 C12.505 65.99 12.505 65.99 12 67 C11.34 67 10.68 67 10 67 C9.505 67.99 9.505 67.99 9 69 C8.67 68.67 8.34 68.34 8 68 C7.87625 68.804375 7.7525 69.60875 7.625 70.4375 C7.315625 71.7059375 7.315625 71.7059375 7 73 C6.01 73.495 6.01 73.495 5 74 C4.67 74.99 4.34 75.98 4 77 C2.68 77 1.36 77 0 77 C0 51.59 0 26.18 0 0 Z " fill="#33A2FF" transform="translate(0,87)"/>
<path d="M0 0 C4.13567847 2.06783923 5.36924245 3.45592197 8.0625 7.0625 C10.82750893 10.97388781 10.82750893 10.97388781 15 13 C15.99 12.67 16.98 12.34 18 12 C18.84454356 15.37817425 19.10844919 17.67465243 18 21 C17.34 21 16.68 21 16 21 C16 20.34 16 19.68 16 19 C15.34 19 14.68 19 14 19 C14.495 21.475 14.495 21.475 15 24 C14.34 24 13.68 24 13 24 C13.495 24.8971875 13.495 24.8971875 14 25.8125 C15.15374385 28.33631468 15 30.26895086 15 33 C14.34 33 13.68 33 13 33 C13 32.34 13 31.68 13 31 C11.700625 31.144375 10.40125 31.28875 9.0625 31.4375 C8.33160156 31.51871094 7.60070313 31.59992188 6.84765625 31.68359375 C4.98859771 31.81886614 4.98859771 31.81886614 4 33 C4.33 33.33 4.66 33.66 5 34 C5.61875 33.835 6.2375 33.67 6.875 33.5 C9 33 9 33 12 34 C11.67 36.31 11.34 38.62 11 41 C10.34 41 9.68 41 9 41 C9 41.66 9 42.32 9 43 C8.01 43.66 7.02 44.32 6 45 C5.71943824 47.80561762 5.73289132 49.46578263 7 52 C6.2575 51.79375 5.515 51.5875 4.75 51.375 C1.67669159 50.95591249 0.57213134 51.38050989 -2 53 C-2.495 52.505 -2.495 52.505 -3 52 C-3.66 52.99 -4.32 53.98 -5 55 C-5.66 55 -6.32 55 -7 55 C-7 54.01 -7 53.02 -7 52 C-8.95216435 53.95216435 -9.84826645 55.53199953 -11 58 C-11.66 57.67 -12.32 57.34 -13 57 C-13 56.34 -13 55.68 -13 55 C-13.45375 55.495 -13.9075 55.99 -14.375 56.5 C-16 58 -16 58 -18 58 C-17.67 58.7425 -17.34 59.485 -17 60.25 C-16 63 -16 63 -16 67 C-17.6875 68.125 -17.6875 68.125 -20 69 C-22.75 68.125 -22.75 68.125 -25 67 C-23.74458443 64.48916886 -22.49936512 64.12874554 -20 63 C-20.495 61.515 -20.495 61.515 -21 60 C-21.99 60.99 -22.98 61.98 -24 63 C-24.79953138 59.71303767 -25.09658936 58.28976808 -24 55 C-22.7934375 55.2784375 -22.7934375 55.2784375 -21.5625 55.5625 C-20.716875 55.706875 -19.87125 55.85125 -19 56 C-18.505 55.505 -18.505 55.505 -18 55 C-18.66 54.34 -19.32 53.68 -20 53 C-20 52.67 -20 52.34 -20 52 C-20.66 51.67 -21.32 51.34 -22 51 C-22 51.99 -22 52.98 -22 54 C-22.66 54 -23.32 54 -24 54 C-24.66 54.66 -25.32 55.32 -26 56 C-26.66 56 -27.32 56 -28 56 C-28 50.39 -28 44.78 -28 39 C-26.68 39 -25.36 39 -24 39 C-23.814375 37.88625 -23.814375 37.88625 -23.625 36.75 C-23.0219893 34.09675291 -22.58015541 32.21221757 -21 30 C-18.375 29.25 -18.375 29.25 -16 29 C-15.67 28.01 -15.34 27.02 -15 26 C-12.875 30.625 -12.875 30.625 -14 34 C-13.67 34.99 -13.34 35.98 -13 37 C-12.34 36.01 -11.68 35.02 -11 34 C-10.67 34.66 -10.34 35.32 -10 36 C-9.67 33.36 -9.34 30.72 -9 28 C-8.34 28 -7.68 28 -7 28 C-6.9071875 27.1646875 -6.9071875 27.1646875 -6.8125 26.3125 C-5.64327572 22.98470782 -3.64677196 21.26866168 -1 19 C-0.01 19 0.98 19 2 19 C1.01 18.67 0.02 18.34 -1 18 C-1.33 18.66 -1.66 19.32 -2 20 C-2.66 20 -3.32 20 -4 20 C-4.33 20.66 -4.66 21.32 -5 22 C-6 20 -6 20 -4.9375 16.625 C-3.13984248 12.60127126 -0.79417957 11.10787754 3 9 C1.515 4.545 1.515 4.545 0 0 Z " fill="#3EA7FF" transform="translate(28,125)"/>
<path d="M0 0 C3.38315805 1.92375654 6.5444706 3.95571794 9 7 C9.29296875 9.26171875 9.29296875 9.26171875 9.1875 11.6875 C9.14689453 12.89986328 9.14689453 12.89986328 9.10546875 14.13671875 C9.05326172 15.05904297 9.05326172 15.05904297 9 16 C8.34 16 7.68 16 7 16 C6.76796875 16.680625 6.5359375 17.36125 6.296875 18.0625 C4.6827044 21.71869364 2.5738129 24.7632606 0.25 28 C-0.16765625 28.60328125 -0.5853125 29.2065625 -1.015625 29.828125 C-4.84834535 35.20328159 -9.38438744 40.307634 -16 42 C-20.75722418 42.57475757 -24.01726876 42.51917877 -28.3125 40.25 C-29.199375 39.5075 -30.08625 38.765 -31 38 C-31.78375 37.38125 -32.5675 36.7625 -33.375 36.125 C-35.59497304 33.22195833 -35.37531349 31.59859409 -35 28 C-31.01083509 21.31016014 -24.81016923 15.62214477 -19.375 10.0625 C-18.84946533 9.51907959 -18.32393066 8.97565918 -17.7824707 8.41577148 C-12.87135348 3.51533558 -7.34409475 -1.25005868 0 0 Z " fill="#CAE3F7" transform="translate(151,127)"/>
<path d="M0 0 C1.74583549 0.82141018 3.49619159 1.63325357 5.25 2.4375 C6.21421875 2.8809375 7.1784375 3.324375 8.171875 3.78125 C10.59956216 4.82743563 12.98060665 5.65368874 15.5 6.4375 C19 8 19 8 21 10.875 C21.94300676 13.82189614 22.27016342 15.93814796 22 19 C18.04 20.98 18.04 20.98 14 23 C13.505 21.02 13.505 21.02 13 19 C10.50965614 17.70339566 10.50965614 17.70339566 8 17 C8.33 17.33 8.66 17.66 9 18 C7.2461872 21.5076256 3.43581684 23.28209158 0 25 C0.875 17.125 0.875 17.125 2 16 C1.34 16 0.68 16 0 16 C0 16.99 0 17.98 0 19 C-2.33333333 19 -4.66666667 19 -7 19 C-8.67225729 19.30404678 -10.34080104 19.63128912 -12 20 C-11.67 20.33 -11.34 20.66 -11 21 C-8.94603274 20.59070014 -8.94603274 20.59070014 -7 20 C-7 21.32 -7 22.64 -7 24 C-8.98 24 -10.96 24 -13 24 C-13 24.66 -13 25.32 -13 26 C-11.15274948 26.69159401 -11.15274948 26.69159401 -9 27 C-8.01 26.34 -7.02 25.68 -6 25 C-6 25.99 -6 26.98 -6 28 C-5.34 28.99 -4.68 29.98 -4 31 C-7.01031744 31.93423645 -7.86650268 32.04449911 -11 31 C-11.33 31.66 -11.66 32.32 -12 33 C-12.598125 32.030625 -13.19625 31.06125 -13.8125 30.0625 C-15.71127509 26.76947958 -15.71127509 26.76947958 -19 26 C-19 25.01 -19 24.02 -19 23 C-19.66 22.67 -20.32 22.34 -21 22 C-20.34 20.68 -19.68 19.36 -19 18 C-19.66 17.67 -20.32 17.34 -21 17 C-21.33 17.99 -21.66 18.98 -22 20 C-24.66666667 20 -27.33333333 20 -30 20 C-30.33 20.99 -30.66 21.98 -31 23 C-32.65 22.67 -34.3 22.34 -36 22 C-35.01 21.67 -34.02 21.34 -33 21 C-32.855625 20.195625 -32.71125 19.39125 -32.5625 18.5625 C-32 16 -32 16 -31 15 C-30.855625 14.13375 -30.71125 13.2675 -30.5625 12.375 C-27.9064417 6.63791406 -22.95883166 3.54327336 -17.12744141 1.27001953 C-4.5428517 -2.99715112 -4.5428517 -2.99715112 0 0 Z " fill="#0898FE" transform="translate(75,191)"/>
<path d="M0 0 C3.70283336 2.96226669 5.80424672 4.74444418 8.4453125 8.37109375 C9.04730469 9.19287109 9.64929688 10.01464844 10.26953125 10.86132812 C10.88183594 11.71146484 11.49414062 12.56160156 12.125 13.4375 C12.74503906 14.28376953 13.36507813 15.13003906 14.00390625 16.00195312 C22 26.98153562 22 26.98153562 22 30 C21.01 30.33 20.02 30.66 19 31 C18.67 30.67 18.34 30.34 18 30 C18 31.65 18 33.3 18 35 C18.99 34.34 19.98 33.68 21 33 C21.33 34.32 21.66 35.64 22 37 C19 39 19 39 17 39 C16.67 39.66 16.34 40.32 16 41 C15.34 41 14.68 41 14 41 C13.9175 42.2375 13.835 43.475 13.75 44.75 C13.36524541 47.98882964 13.09975997 48.87907883 10.9375 51.5 C10.298125 51.995 9.65875 52.49 9 53 C9 52.01 9 51.02 9 50 C6.91117258 49.7905543 6.91117258 49.7905543 5.375 51.3125 C3.68416352 53.02482427 3.68416352 53.02482427 4 56 C2.02 56.495 2.02 56.495 0 57 C0 38.19 0 19.38 0 0 Z " fill="#269EFF" transform="translate(0,87)"/>
<path d="M0 0 C5.94594595 4.75675676 5.94594595 4.75675676 8 8 C8 8.66 8 9.32 8 10 C8.56074219 10.25007813 9.12148437 10.50015625 9.69921875 10.7578125 C12.36322515 12.19610458 14.48882039 13.93555087 16.8125 15.875 C20.7225745 19.06098663 24.53469407 21.67027517 29 24 C27.35009794 28.29597139 24.18257193 31.00517646 20.9375 34.125 C16.9955106 37.69553366 16.9955106 37.69553366 14 42 C9.38 42 4.76 42 0 42 C0 28.14 0 14.28 0 0 Z " fill="#0894FF" transform="translate(0,248)"/>
<path d="M0 0 C0.99 0.33 1.98 0.66 3 1 C1.35 2.98 -0.3 4.96 -2 7 C-1.34 7.33 -0.68 7.66 0 8 C0.625 10.5625 0.625 10.5625 1 13 C1.33 12.34 1.66 11.68 2 11 C2.99 12.485 2.99 12.485 4 14 C2.02 14.66 0.04 15.32 -2 16 C-1.236875 16 -0.47375 16 0.3125 16 C4.65333536 16 8.70102472 16.35109807 13 17 C13.96293815 20.60003017 14.26949951 22.41209255 12.69238281 25.85253906 C12.03592773 26.81385742 11.37947266 27.77517578 10.703125 28.765625 C9.9915625 29.82007813 9.28 30.87453125 8.546875 31.9609375 C8.16982422 32.50073242 7.79277344 33.04052734 7.40429688 33.59667969 C6.25134322 35.24807609 5.12397261 36.91471599 4 38.5859375 C-1.53583177 46.69055451 -1.53583177 46.69055451 -5 49 C-9.04895835 44.95264567 -10.57007808 42.49071394 -10.61778259 36.75593567 C-10.59825027 35.98698471 -10.57871796 35.21803375 -10.55859375 34.42578125 C-10.55626236 33.62013229 -10.55393097 32.81448334 -10.55152893 31.98442078 C-10.54182913 30.2908562 -10.52012907 28.59732222 -10.48706055 26.90405273 C-10.43745022 24.30989693 -10.42556495 21.71763535 -10.41992188 19.12304688 C-10.40584215 17.47393812 -10.38964 15.82484582 -10.37109375 14.17578125 C-10.36573105 13.4007576 -10.36036835 12.62573395 -10.35484314 11.82722473 C-10.27088245 8.0398441 -10.1500333 6.22504996 -8 3 C-8 3.99 -8 4.98 -8 6 C-7.34 6 -6.68 6 -6 6 C-5.67 5.34 -5.34 4.68 -5 4 C-2.625 1.8125 -2.625 1.8125 0 0 Z " fill="#54AFFF" transform="translate(10,205)"/>
<path d="M0 0 C0.556875 0.38671875 1.11375 0.7734375 1.6875 1.171875 C11.16378663 7.63880034 19.85840016 11.07738822 31 14 C31.59449951 14.17797119 32.18899902 14.35594238 32.80151367 14.53930664 C38.08740994 15.64696753 43.68479447 15.22867048 49.0625 15.25 C50.33544922 15.270625 51.60839844 15.29125 52.91992188 15.3125 C59.97260034 15.34147865 66.0345303 14.84377413 72.72827148 12.54980469 C75.228193 11.94477264 76.59695926 12.16710242 79 13 C79.495 14.98 79.495 14.98 80 17 C65.83540533 25.55777595 45.0997177 26.28018996 29.14453125 23.2734375 C26.27134584 22.37761543 23.68450439 21.35338198 21 20 C19.94232422 19.4740625 19.94232422 19.4740625 18.86328125 18.9375 C11.77736267 14.92817868 4.4658467 8.83606954 0 2 C0 1.34 0 0.68 0 0 Z " fill="#C6C9CC" transform="translate(60,175)"/>
<path d="M0 0 C2.20998503 3.96888568 2.26519275 7.41788969 2.1875 11.875 C2.18685547 12.56980469 2.18621094 13.26460937 2.18554688 13.98046875 C2.15077526 18.08351936 1.78859955 21.97498789 1 26 C2.34191406 25.96519531 2.34191406 25.96519531 3.7109375 25.9296875 C10.33511838 25.83081913 16.39462006 25.9573256 22.81640625 27.66015625 C28.51562728 28.54715487 32.87643952 25.61204999 37.6953125 22.9609375 C40 22 40 22 43 23 C30.26575037 32.95709944 16.01250439 43.48228376 -0.75 44.4375 C-1.8225 44.623125 -2.895 44.80875 -4 45 C-6.08632697 47.91841857 -6.08632697 47.91841857 -7 51 C-8 49 -8 49 -7.07421875 46.12890625 C-6.15868182 43.7743 -5.24203722 41.4201241 -4.32421875 39.06640625 C-1.16603063 30.06921593 -0.65289485 20.76671428 -0.375 11.3125 C-0.31699219 9.66991211 -0.31699219 9.66991211 -0.2578125 7.99414062 C-0.16472748 5.329582 -0.07890148 2.66500978 0 0 Z " fill="#64B0FE" transform="translate(231,150)"/>
<path d="M0 0 C1.74583549 0.82141018 3.49619159 1.63325357 5.25 2.4375 C6.21421875 2.8809375 7.1784375 3.324375 8.171875 3.78125 C10.59956216 4.82743563 12.98060665 5.65368874 15.5 6.4375 C19 8 19 8 21 10.875 C21.94300676 13.82189614 22.27016342 15.93814796 22 19 C18.04 20.98 18.04 20.98 14 23 C13.67 21.68 13.34 20.36 13 19 C10.50965614 17.70339566 10.50965614 17.70339566 8 17 C8.33 17.33 8.66 17.66 9 18 C7.2461872 21.5076256 3.43581684 23.28209158 0 25 C0.875 17.125 0.875 17.125 2 16 C1.34 16 0.68 16 0 16 C0 15.01 0 14.02 0 13 C-0.53625 13.37125 -1.0725 13.7425 -1.625 14.125 C-4.94612897 15.34857383 -6.81090417 14.30463011 -10 13 C-10 12.01 -10 11.02 -10 10 C-10.33 9.34 -10.66 8.68 -11 8 C-10.34 8 -9.68 8 -9 8 C-10.32 6.35 -11.64 4.7 -13 3 C-10.93860355 0.63321149 -9.49087373 -0.8281942 -6.5 -1.875 C-3.56152204 -2.0219239 -2.56623994 -1.37081522 0 0 Z " fill="#0593F8" transform="translate(75,191)"/>
<path d="M0 0 C3.37787477 0.53684081 4.96784832 1.79169371 7.1875 4.34765625 C8.59738255 7.42376363 9.34283248 9.36388387 8.8125 12.72265625 C8.60625 13.25890625 8.4 13.79515625 8.1875 14.34765625 C7.713125 13.85265625 7.23875 13.35765625 6.75 12.84765625 C2.77498416 10.52081771 -0.42204851 10.40896703 -4.8125 11.34765625 C-9.69970508 13.27733432 -14.30980705 15.82409097 -18.92236328 18.32568359 C-21.48768459 19.71271989 -24.0829895 21.03595067 -26.6875 22.34765625 C-27.44804687 22.73953125 -28.20859375 23.13140625 -28.9921875 23.53515625 C-30.8125 24.34765625 -30.8125 24.34765625 -32.8125 24.34765625 C-33.74079398 20.13795099 -33.74079398 20.13795099 -32.8125 17.34765625 C-29.58160937 14.36942569 -25.85551828 12.2881243 -22.0625 10.09765625 C-20.04639021 8.88492016 -18.03074726 7.67140756 -16.015625 6.45703125 C-15.11489258 5.93077148 -14.21416016 5.40451172 -13.28613281 4.86230469 C-10.80598233 3.40112709 -10.80598233 3.40112709 -8.6237793 1.68041992 C-5.80815387 -0.39135514 -3.38909225 -0.12820579 0 0 Z " fill="#CBCDD0" transform="translate(198.8125,156.65234375)"/>
<path d="M0 0 C11.21186556 7.47457704 18.56151393 16.59062036 27 27 C23.7432605 28.08557983 22.90032582 27.91335726 19.6875 27.125 C13.16321816 25.6944908 6.65969833 25.39174696 0 25 C0 16.75 0 8.5 0 0 Z " fill="#AAD7FE" transform="translate(232,151)"/>
<path d="M0 0 C1.46538911 4.42547513 0.0196077 6.88310739 -2 11 C-2.33 11.33 -2.66 11.66 -3 12 C-2.979375 12.94875 -2.95875 13.8975 -2.9375 14.875 C-3 18 -3 18 -5 21 C-7.625 21.6875 -7.625 21.6875 -10 22 C-9.95875 21.05125 -9.9175 20.1025 -9.875 19.125 C-9.65026182 15.89755144 -9.65026182 15.89755144 -12 14 C-12 13.67 -12 13.34 -12 13 C-12.99 13.495 -12.99 13.495 -14 14 C-15.10844919 10.67465243 -14.84454356 8.37817425 -14 5 C-14.99 5 -15.98 5 -17 5 C-17.33 5.66 -17.66 6.32 -18 7 C-18.33 6.01 -18.66 5.02 -19 4 C-12.15622802 -0.12912339 -7.90109009 -1.65668018 0 0 Z " fill="#55B0FE" transform="translate(60,133)"/>
<path d="M0 0 C3.0625 2 3.0625 2 5 4 C3.64279441 8.44176375 2.00613831 10.61336441 -2 13 C-8.07862333 14.60085881 -13.07923177 13.83005563 -19 12 C-10.29598465 -1.36688072 -10.29598465 -1.36688072 0 0 Z " fill="#38A3FD" transform="translate(203,167)"/>
<path d="M0 0 C0.55171875 0.27972656 1.1034375 0.55945313 1.671875 0.84765625 C4.17923228 2.08871396 6.7069363 3.27132365 9.25 4.4375 C10.21421875 4.8809375 11.1784375 5.324375 12.171875 5.78125 C14.59956216 6.82743563 16.98060665 7.65368874 19.5 8.4375 C23 10 23 10 25 12.875 C25.94300676 15.82189614 26.27016342 17.93814796 26 21 C19.80243355 20.68217608 15.83958702 17.53523736 11 14 C10.113125 13.38125 9.22625 12.7625 8.3125 12.125 C5.0591038 9.13539268 2.35595259 5.74037833 0 2 C0 1.34 0 0.68 0 0 Z " fill="#040B11" transform="translate(71,189)"/>
<path d="M0 0 C-21.23662307 16.60523187 -21.23662307 16.60523187 -31 18 C-33.9375 17.125 -33.9375 17.125 -36 16 C-35.34 15.34 -34.68 14.68 -34 14 C-33.5875 13.46375 -33.175 12.9275 -32.75 12.375 C-30.21484468 10.38309225 -28.12499944 10.7916667 -25 11 C-24.34 9.35 -23.68 7.7 -23 6 C-21.741875 5.95875 -20.48375 5.9175 -19.1875 5.875 C-13.8049967 5.32907256 -9.92690979 2.98900121 -5.3828125 0.1796875 C-3 -1 -3 -1 0 0 Z " fill="#62AFFF" transform="translate(274,173)"/>
<path d="M0 0 C0.33 0.99 0.66 1.98 1 3 C1.99 3 2.98 3 4 3 C4.33 2.34 4.66 1.68 5 1 C5.33 2.98 5.66 4.96 6 7 C6.99 7 7.98 7 9 7 C9.33 7.99 9.66 8.98 10 10 C9 11 9 11 7.23413086 11.11352539 C6.48526611 11.10828857 5.73640137 11.10305176 4.96484375 11.09765625 C4.15595703 11.09443359 3.34707031 11.09121094 2.51367188 11.08789062 C1.66353516 11.07951172 0.81339844 11.07113281 -0.0625 11.0625 C-0.91650391 11.05798828 -1.77050781 11.05347656 -2.65039062 11.04882812 C-4.76695663 11.03700373 -6.88348685 11.01906769 -9 11 C-7.59155282 7.78475695 -5.89655214 5.67816132 -3.375 3.25 C-2.74335938 2.63640625 -2.11171875 2.0228125 -1.4609375 1.390625 C-0.73777344 0.70226562 -0.73777344 0.70226562 0 0 Z " fill="#71B6FF" transform="translate(23,279)"/>
<path d="M0 0 C2.13038482 3.86304139 2.30740094 7.1595662 2.25 11.5 C2.24613281 12.20616455 2.24226562 12.9123291 2.23828125 13.63989258 C2.15074477 19.02034693 1.51270318 24.17026983 0.4375 29.44921875 C-0.00308253 32.01797227 -0.074974 34.39933942 0 37 C0.99 37.33 1.98 37.66 3 38 C3 39.98 3 41.96 3 44 C1.3603125 44.061875 1.3603125 44.061875 -0.3125 44.125 C-4.24996333 44.60565398 -4.24996333 44.60565398 -5.9375 48.0625 C-6.288125 49.031875 -6.63875 50.00125 -7 51 C-8 49 -8 49 -7.07421875 46.12890625 C-6.15868182 43.7743 -5.24203722 41.4201241 -4.32421875 39.06640625 C-1.16603063 30.06921593 -0.65289485 20.76671428 -0.375 11.3125 C-0.31699219 9.66991211 -0.31699219 9.66991211 -0.2578125 7.99414062 C-0.16472748 5.329582 -0.07890148 2.66500978 0 0 Z " fill="#6599CE" transform="translate(231,150)"/>
<path d="M0 0 C0.804375 0.185625 1.60875 0.37125 2.4375 0.5625 C3.283125 0.706875 4.12875 0.85125 5 1 C5.33 0.67 5.66 0.34 6 0 C7.66617115 -0.04063832 9.33388095 -0.042721 11 0 C9.66090471 4.38249366 7.91005056 6.57949251 4 9 C1.6875 8.75 1.6875 8.75 0 8 C0 7.34 0 6.68 0 6 C-0.99 5.67 -1.98 5.34 -3 5 C-2.67 3.68 -2.34 2.36 -2 1 C-1.34 1.33 -0.68 1.66 0 2 C0 1.34 0 0.68 0 0 Z " fill="#2E9FFC" transform="translate(197,171)"/>
<path d="M0 0 C-1.55294241 3.49412042 -3.21098638 6.35777657 -6 9 C-8.80033987 9.4345355 -11.14235311 9.23813724 -14 9 C-14.33 8.34 -14.66 7.68 -15 7 C-12.87767021 5.82823482 -10.75242209 4.66245215 -8.625 3.5 C-7.72007812 2.99919922 -7.72007812 2.99919922 -6.796875 2.48828125 C-2.2265625 0 -2.2265625 0 0 0 Z " fill="#A3D1FA" transform="translate(191,169)"/>
<path d="M0 0 C0.97108384 2.6974551 0.95759072 4.28973738 0.53515625 7.17578125 C-0.00635091 11.04538354 -0.13295289 14.72012882 -0.125 18.625 C-0.12757812 19.89601562 -0.13015625 21.16703125 -0.1328125 22.4765625 C-0.02020097 25.46408027 0.30091938 28.10380888 1 31 C-1 30 -1 30 -2 27 C-2.19887925 25.19075124 -2.36209601 23.37741502 -2.5 21.5625 C-2.70488489 18.87338583 -2.90001936 16.37807247 -3.58984375 13.76953125 C-4.16176659 11.30209273 -3.11619914 10.23239827 -2 8 C-1.83275263 4.83304044 -1.83275263 4.83304044 -2 2 C-1.34 2 -0.68 2 0 2 C0 1.34 0 0.68 0 0 Z M-7 15 C-6.01 15.33 -5.02 15.66 -4 16 C-5.98 16.99 -5.98 16.99 -8 18 C-7.67 17.01 -7.34 16.02 -7 15 Z " fill="#4BA0E8" transform="translate(58,142)"/>
<path d="M0 0 C1.98 0.99 3.96 1.98 6 3 C5.67 3.99 5.34 4.98 5 6 C5 5.34 5 4.68 5 4 C4.34 4 3.68 4 3 4 C3.99 5.65 4.98 7.3 6 9 C3.45297384 10.27351308 2.5717055 9.80191925 -0.125 9.0625 C-0.84945313 8.86785156 -1.57390625 8.67320312 -2.3203125 8.47265625 C-2.87460937 8.31667969 -3.42890625 8.16070312 -4 8 C-2.87548273 5.0280615 -1.77706209 2.66559313 0 0 Z " fill="#239DFF" transform="translate(31,216)"/>
<path d="M0 0 C3.73487777 0.4979837 5.81237635 0.87491756 9 3 C9 3.66 9 4.32 9 5 C7.04072937 6.7143618 5.04119788 8.38405168 3 10 C2.01 6.7 1.02 3.4 0 0 Z " fill="#0E94F5" transform="translate(94,199)"/>
<path d="M0 0 C0.66 0.99 1.32 1.98 2 3 C-1.19990508 5.74277578 -4.00499382 7.6302836 -8 9 C-7.04270084 7.87411986 -6.08412105 6.7493285 -5.125 5.625 C-4.59132813 4.99851562 -4.05765625 4.37203125 -3.5078125 3.7265625 C-2.38567993 2.44163349 -1.20628025 1.20628025 0 0 Z " fill="#76B8FF" transform="translate(36,266)"/>
<path d="M0 0 C0.66 0.33 1.32 0.66 2 1 C0.35 2.65 -1.3 4.3 -3 6 C-2.67 6.66 -2.34 7.32 -2 8 C-3.98 8 -5.96 8 -8 8 C-8 7.34 -8 6.68 -8 6 C-6.25 4.4921875 -6.25 4.4921875 -4 2.875 C-3.2575 2.33617187 -2.515 1.79734375 -1.75 1.2421875 C-1.1725 0.83226562 -0.595 0.42234375 0 0 Z " fill="#19232E" transform="translate(192,221)"/>
<path d="M0 0 C1.0625 1.8125 1.0625 1.8125 2 4 C1.67 4.99 1.34 5.98 1 7 C0.34 7 -0.32 7 -1 7 C-1.33 7.66 -1.66 8.32 -2 9 C-2.33 8.01 -2.66 7.02 -3 6 C-2.01 5.01 -1.02 4.02 0 3 C-0.66 3 -1.32 3 -2 3 C-1 1 -1 1 0 0 Z " fill="#1E9CFF" transform="translate(84,206)"/>
<path d="M0 0 C0.99 0 1.98 0 3 0 C1.75023244 3.65316671 1.32901247 4.78065836 -2 7 C-2.33 6.01 -2.66 5.02 -3 4 C-1.68 3.67 -0.36 3.34 1 3 C0.67 2.01 0.34 1.02 0 0 Z " fill="#2D93E7" transform="translate(205,171)"/>
<path d="M0 0 C0.99 0.33 1.98 0.66 3 1 C2.67 3.31 2.34 5.62 2 8 C0 5 0 5 -1 2 C-0.67 1.34 -0.34 0.68 0 0 Z " fill="#50A5EE" transform="translate(58,133)"/>
</svg>
